<svg xmlns="http://www.w3.org/2000/svg" viewBox="15 -3 40 75" width="48" height="48">
  <path
  d="M674.963312,933.125812 C675.496378,932.982977 676.043263,933.295433 676.189758,933.842162 L676.702547,935.755914 C676.846828,936.294378 676.52313,936.848964 675.991398,936.991441 L668.767638,938.927042 C667.700706,939.212926 666.604032,938.579761 666.318148,937.512829 L664.382548,930.289068 C664.238649,929.752031 664.550242,929.201928 665.096971,929.055432 L667.010724,928.542644 C667.549188,928.398363 668.101754,928.714523 668.244325,929.246603 L668.932163,931.81365 L674.519924,922.135364 C674.794976,921.65896 675.401904,921.494435 675.892088,921.777443 L677.607912,922.768074 C678.090685,923.046804 678.258237,923.660416 677.984025,924.135364 L672.396264,933.81365 L674.963312,933.125812 Z M711.755675,929.246603 C711.89851,928.713536 712.442547,928.396148 712.989276,928.542644 L714.903029,929.055432 C715.441493,929.199713 715.759929,929.757337 715.617452,930.289068 L713.681852,937.512829 C713.395968,938.579761 712.299294,939.212926 711.232362,938.927042 L704.008602,936.991441 C703.471564,936.847543 703.150958,936.302643 703.297453,935.755914 L703.810242,933.842162 C703.954523,933.303698 704.504609,932.983241 705.036688,933.125812 L707.603736,933.81365 L702.015975,924.135364 C701.740923,923.65896 701.901904,923.051082 702.392088,922.768074 L704.107912,921.777443 C704.590685,921.498714 705.205865,921.660416 705.480076,922.135364 L711.067837,931.81365 L711.755675,929.246603 Z M693.879209,933.292364 C694.269441,932.902132 694.899284,932.899284 695.299518,933.299518 L696.700482,934.700482 C697.094665,935.094665 697.091628,935.7368 696.702373,936.126054 L691.414214,941.414214 C690.633165,942.195262 689.366835,942.195262 688.585786,941.414214 L683.297627,936.126054 C682.904488,935.732915 682.899284,935.100716 683.299518,934.700482 L684.700482,933.299518 C685.094665,932.905335 685.731282,932.902855 686.120791,933.292364 L688,935.171573 L688,923.996051 C688,923.445947 688.443353,923 689.009369,923 L690.990631,923 C691.54809,923 692,923.447628 692,923.996051 L692,935.171573 L693.879209,933.292364 Z M690,918 C683.924868,918 679,913.075132 679,907 C679,900.924868 683.924868,896 690,896 C696.075132,896 701,900.924868 701,907 C701,913.075132 696.075132,918 690,918 Z M690,964 C685.581722,964 682,960.418278 682,956 C682,951.581722 685.581722,948 690,948 C694.418278,948 698,951.581722 698,956 C698,960.418278 694.418278,964 690,964 Z M715,960 C710.581722,960 707,956.418278 707,952 C707,947.581722 710.581722,944 715,944 C719.418278,944 723,947.581722 723,952 C723,956.418278 719.418278,960 715,960 Z M665,960 C660.581722,960 657,956.418278 657,952 C657,947.581722 660.581722,944 665,944 C669.418278,944 673,947.581722 673,952 C673,956.418278 669.418278,960 665,960 Z"
  transform="translate(-657 -896)"
  />
</svg>
